<svg id="Layer_1" data-name="Layer 1" xmlns="http://www.w3.org/2000/svg" viewBox="0 0 129.39 87.88"><defs><style>.cls-1{fill:#fff;}.cls-2{fill:#1e4490;}.cls-3{fill:#faea10;}</style></defs><title>EU-1</title><rect class="cls-1" width="129.39" height="87.88"/><rect class="cls-2" x="2.49" y="2.4" width="124.42" height="82.94"/><polygon class="cls-3" points="62.05 20.48 64.67 18.56 67.3 20.48 66.29 17.38 68.96 15.47 65.67 15.47 64.67 12.32 63.66 15.47 60.38 15.47 63.04 17.38 62.05 20.48"/><polygon class="cls-3" points="48.45 24.12 51.08 22.21 53.71 24.12 52.71 21.03 55.37 19.11 52.09 19.11 51.08 15.96 50.08 19.12 46.79 19.11 49.46 21.03 48.45 24.12"/><polygon class="cls-3" points="41.14 25.93 40.13 29.08 36.85 29.07 39.51 30.98 38.52 34.09 41.14 32.17 43.76 34.09 42.78 30.98 45.43 29.07 42.15 29.07 41.14 25.93"/><polygon class="cls-3" points="37.5 45.74 40.12 47.66 39.12 44.56 41.8 42.65 38.5 42.65 37.5 39.5 36.49 42.65 33.2 42.65 35.87 44.56 34.87 47.66 37.5 45.74"/><polygon class="cls-3" points="42.15 56.26 41.14 53.12 40.13 56.26 36.85 56.26 39.51 58.17 38.52 61.27 41.14 59.36 43.76 61.27 42.78 58.17 45.43 56.26 42.15 56.26"/><polygon class="cls-3" points="52.11 66.2 51.09 63.08 50.1 66.22 46.81 66.2 49.48 68.13 48.48 71.22 51.11 69.32 53.72 71.22 52.73 68.13 55.39 66.2 52.11 66.2"/><polygon class="cls-3" points="65.67 69.82 64.67 66.69 63.66 69.82 60.39 69.82 63.04 71.73 62.05 74.84 64.67 72.92 67.3 74.84 66.29 71.73 68.97 69.82 65.67 69.82"/><polygon class="cls-3" points="79.25 66.2 78.24 63.08 77.23 66.22 73.94 66.2 76.61 68.13 75.61 71.22 78.24 69.32 80.86 71.22 79.87 68.13 82.54 66.2 79.25 66.2"/><polygon class="cls-3" points="89.2 56.26 88.2 53.12 87.19 56.26 83.91 56.26 86.57 58.17 85.58 61.27 88.2 59.36 90.83 61.27 89.82 58.17 92.49 56.26 89.2 56.26"/><polygon class="cls-3" points="96.1 42.61 92.81 42.61 91.81 39.46 90.8 42.61 87.51 42.61 90.17 44.52 89.18 47.62 91.81 45.69 94.43 47.62 93.44 44.52 96.1 42.61"/><polygon class="cls-3" points="85.58 34.05 88.2 32.13 90.83 34.05 89.82 30.96 92.49 29.04 89.2 29.04 88.2 25.9 87.19 29.04 83.9 29.04 86.57 30.96 85.58 34.05"/><polygon class="cls-3" points="78.28 15.98 77.28 19.12 73.98 19.11 76.65 21.03 75.66 24.12 78.28 22.21 80.91 24.12 79.91 21.03 82.56 19.11 79.28 19.11 78.28 15.98"/></svg>