<svg id="Layer_1" data-name="Layer 1" xmlns="http://www.w3.org/2000/svg" viewBox="0 0 142.5 42.46"><defs><style>.cls-1,.cls-12,.cls-13{fill:#231f20;}.cls-2{fill:#ed1c24;}.cls-3{fill:#8ad4e4;}.cls-4{fill:#138843;}.cls-5{fill:#476bb3;}.cls-6{fill:#ffde17;}.cls-7{fill:#0d8845;}.cls-8{fill:#33b55e;}.cls-9{fill:#9a583e;}.cls-10,.cls-11{fill:#fff;}.cls-11,.cls-12{stroke:#231f20;stroke-width:0.18px;}.cls-11,.cls-13{stroke-miterlimit:10;}.cls-12{stroke-linejoin:bevel;}.cls-13{stroke:#101417;stroke-width:0.48px;}</style></defs><title>portoviejo</title><path class="cls-1" d="M25.13,2a26.75,26.75,0,0,0-2.6-.77h0a.11.11,0,0,0-.11,0l-.2.27-.06-.34a.1.1,0,0,0-.08-.09h0C21.61,1,21.2.92,20.72.83h0a.11.11,0,0,0-.1,0l-.31.31.05-.28a.1.1,0,0,0,0-.1.1.1,0,0,0-.07,0C19.79.67,19.44.62,19,.57l-.13,0h0a.11.11,0,0,0-.09,0L18.42.9V.59a.12.12,0,0,0-.1-.12h0c-.55-.07-.92-.1-1.52-.15h0s-.07,0-.1,0l-.15.24V.4c0-.05,0-.1-.1-.11h0c-.62,0-1.27-.08-1.92-.1h0a.12.12,0,0,0-.08,0l-.29.35V.28A.11.11,0,0,0,14,.18H12a.11.11,0,0,0-.11.11V.57L11.61.23a.12.12,0,0,0-.08,0h0c-.61,0-1,0-1.59.08h0a.11.11,0,0,0-.1.11l0,.29L9.55.35a.12.12,0,0,0-.1,0h0L8.1.43h0C8,.44,8,.49,8,.54V.77L7.78.52a.1.1,0,0,0-.1,0h0C7.06.55,6.5.63,5.87.74h0a.11.11,0,0,0-.09.11v.24L5.53.84a.11.11,0,0,0-.1,0h0c-.54.1-.77.15-1.27.26h0A.13.13,0,0,0,4,1.18v.33l-.31-.29a.14.14,0,0,0-.11,0h0A23.27,23.27,0,0,0,.83,2a.11.11,0,0,0-.07.14l.4,1.19a.11.11,0,0,0,.06.07.14.14,0,0,0,.09,0l.36-.14.87,2.92L2,6.38l-.11,0,.28.78.1,0L2.66,7l.09.26-.35.11-.11,0,.32.88.1,0H23.27l.11,0,.31-.88-.11,0-.35-.11.1-.26.35.11.1,0,.28-.78-.11,0-.54-.17.86-2.95a4.29,4.29,0,0,1,.42.15h.09a.13.13,0,0,0,.06-.07l.35-1.19A.11.11,0,0,0,25.13,2Z"/><path class="cls-1" d="M35.22,23.35H40a6.27,6.27,0,0,1,1.9.27,4,4,0,0,1,1.45.76,3.26,3.26,0,0,1,.92,1.22,3.91,3.91,0,0,1,.33,1.64v0A3.86,3.86,0,0,1,44.19,29a3.46,3.46,0,0,1-1,1.25,4.25,4.25,0,0,1-1.5.76,6.82,6.82,0,0,1-1.9.25H38.28v3.16H35.22Zm4.51,5.5A2,2,0,0,0,41,28.46a1.3,1.3,0,0,0,.46-1.05v0A1.3,1.3,0,0,0,41,26.29a2,2,0,0,0-1.3-.38H38.28v2.94Z"/><path class="cls-1" d="M51.4,34.63A6.17,6.17,0,0,1,49,34.18,6,6,0,0,1,47.15,33a5.76,5.76,0,0,1-1.24-1.82,5.55,5.55,0,0,1-.45-2.23v0a5.61,5.61,0,0,1,1.71-4.06,5.94,5.94,0,0,1,1.89-1.23,6.47,6.47,0,0,1,4.74,0,5.76,5.76,0,0,1,1.88,1.22,5.65,5.65,0,0,1,1.24,1.82,5.51,5.51,0,0,1,.45,2.22v0a5.64,5.64,0,0,1-.45,2.24A5.55,5.55,0,0,1,55.66,33a5.83,5.83,0,0,1-1.89,1.23A6.17,6.17,0,0,1,51.4,34.63Zm0-2.76a2.74,2.74,0,0,0,1.16-.24,2.6,2.6,0,0,0,.88-.64,2.91,2.91,0,0,0,.58-.94,3.33,3.33,0,0,0,.2-1.14v0a3.28,3.28,0,0,0-.2-1.13,3,3,0,0,0-.59-.95,2.84,2.84,0,0,0-.9-.66,2.77,2.77,0,0,0-1.16-.24,2.88,2.88,0,0,0-1.15.23,2.73,2.73,0,0,0-.88.65,2.68,2.68,0,0,0-.57.93,3.33,3.33,0,0,0-.2,1.14v0a3.33,3.33,0,0,0,.2,1.14,3.27,3.27,0,0,0,.58.95,2.81,2.81,0,0,0,.9.65A2.55,2.55,0,0,0,51.42,31.87Z"/><path class="cls-1" d="M59,23.35h5.23a6.47,6.47,0,0,1,2.16.32,3.71,3.71,0,0,1,1.44.89,3.42,3.42,0,0,1,1,2.57v0a3.5,3.5,0,0,1-.62,2.12,3.92,3.92,0,0,1-1.65,1.28l2.63,3.85H65.6l-2.23-3.35H62v3.35H59Zm5.09,5.31a1.88,1.88,0,0,0,1.21-.35,1.18,1.18,0,0,0,.43-1v0a1.17,1.17,0,0,0-.44-1A2.08,2.08,0,0,0,64,26H62v2.65Z"/><path class="cls-1" d="M73,26H69.7V23.35h9.7V26H76.08v8.37H73Z"/><path class="cls-1" d="M86.3,34.63a6.14,6.14,0,0,1-2.37-.45A5.93,5.93,0,0,1,82.05,33a5.65,5.65,0,0,1-1.69-4.05v0a5.59,5.59,0,0,1,.45-2.23,5.67,5.67,0,0,1,1.25-1.83A6,6,0,0,1,84,23.59a6.1,6.1,0,0,1,2.37-.45,6.17,6.17,0,0,1,2.37.45,5.87,5.87,0,0,1,1.88,1.22,5.59,5.59,0,0,1,1.68,4v0a5.81,5.81,0,0,1-.44,2.24A5.55,5.55,0,0,1,90.56,33a6,6,0,0,1-1.9,1.23A6.09,6.09,0,0,1,86.3,34.63Zm0-2.76a2.77,2.77,0,0,0,1.16-.24,2.6,2.6,0,0,0,.88-.64,2.73,2.73,0,0,0,.57-.94,3.12,3.12,0,0,0,.21-1.14v0a3.06,3.06,0,0,0-.21-1.13,2.79,2.79,0,0,0-.58-.95,3,3,0,0,0-.9-.66,2.77,2.77,0,0,0-1.16-.24,2.84,2.84,0,0,0-1.15.23,2.88,2.88,0,0,0-.89.65,3,3,0,0,0-.57.93,3.33,3.33,0,0,0-.19,1.14v0a3.11,3.11,0,0,0,.2,1.14,3.07,3.07,0,0,0,.58.95,2.77,2.77,0,0,0,.89.65A2.63,2.63,0,0,0,86.32,31.87Z"/><path class="cls-1" d="M93,23.35H96.4l2.51,7,2.51-7h3.37L100.3,34.49H97.46Z"/><path class="cls-1" d="M105.92,23.35H109V34.41h-3.08Z"/><path class="cls-1" d="M111,23.35h8.88V26H114v1.67h5.31v2.42H114V31.8H120v2.61h-9Z"/><path class="cls-1" d="M124.53,34.6a5.72,5.72,0,0,1-1.31-.14,4.58,4.58,0,0,1-1.06-.4,4.36,4.36,0,0,1-.86-.59,4.54,4.54,0,0,1-.66-.73l2-1.87a4,4,0,0,0,.82.76,1.6,1.6,0,0,0,.91.27,1.17,1.17,0,0,0,.92-.39,1.68,1.68,0,0,0,.34-1.16v-7h3.05v7a5.41,5.41,0,0,1-.27,1.8,3.5,3.5,0,0,1-.82,1.31,3.64,3.64,0,0,1-1.32.84A5.11,5.11,0,0,1,124.53,34.6Z"/><path class="cls-1" d="M136,34.63a6.17,6.17,0,0,1-2.37-.45A6,6,0,0,1,131.77,33a5.76,5.76,0,0,1-1.24-1.82,5.55,5.55,0,0,1-.45-2.23v0a5.61,5.61,0,0,1,1.71-4.06,6,6,0,0,1,1.9-1.23,6.44,6.44,0,0,1,4.73,0,5.76,5.76,0,0,1,1.88,1.22,5.65,5.65,0,0,1,1.24,1.82,5.51,5.51,0,0,1,.45,2.22v0a5.64,5.64,0,0,1-.45,2.24A5.55,5.55,0,0,1,140.28,33a5.83,5.83,0,0,1-1.89,1.23A6.1,6.1,0,0,1,136,34.63Zm0-2.76a2.72,2.72,0,0,0,1.15-.24,2.64,2.64,0,0,0,.89-.64,3.07,3.07,0,0,0,.57-.94,3.33,3.33,0,0,0,.2-1.14v0a3.28,3.28,0,0,0-.2-1.13,3,3,0,0,0-.59-.95,2.84,2.84,0,0,0-.9-.66A2.74,2.74,0,0,0,136,25.9a2.8,2.8,0,0,0-1.14.23,2.77,2.77,0,0,0-.89.65,2.68,2.68,0,0,0-.57.93,3.33,3.33,0,0,0-.2,1.14v0a3.12,3.12,0,0,0,.21,1.14A3,3,0,0,0,134,31a2.81,2.81,0,0,0,.9.65A2.6,2.6,0,0,0,136.05,31.87Z"/><path class="cls-1" d="M.12,8V30.58h0v.16a4,4,0,0,0,4,4h7a1.82,1.82,0,0,1,1.64,1,.12.12,0,0,0,.1.07.14.14,0,0,0,.11-.07,1.81,1.81,0,0,1,1.63-1h7a4,4,0,0,0,4-4V8Z"/><path class="cls-2" d="M4.13,34.53h7a2,2,0,0,1,1.74,1,2.05,2.05,0,0,1,1.74-1h7a3.79,3.79,0,0,0,3.72-3.74V8.26H.35V30.8a3.8,3.8,0,0,0,3.74,3.73Z"/><path class="cls-1" d="M4,11.94V29.57a1.3,1.3,0,0,0,1.3,1.3h6.34a1.21,1.21,0,0,1,1.1.69s0,.1.1.1.11-.1.11-.1a1.21,1.21,0,0,1,1.1-.69H20.4a1.3,1.3,0,0,0,.93-.38,1.32,1.32,0,0,0,.38-.92V11.94Zm9,9.37V12.17h8.49v9.14Z"/><path class="cls-3" d="M4.25,24.18s1.42-1.27,1.81-1.27a12.18,12.18,0,0,1,2.33,1.27A9.15,9.15,0,0,1,10.25,23a16.88,16.88,0,0,1,2.5,1.74V12.17H4.25Z"/><path class="cls-4" d="M4.25,26h8.51V25a21.8,21.8,0,0,0-2.51-1.74,11.63,11.63,0,0,0-1.86,1.14,15.76,15.76,0,0,0-2.33-1.27,9.12,9.12,0,0,0-1.81,1.26Z"/><path class="cls-5" d="M20.43,30.64H14.07a1.45,1.45,0,0,0-1.08.48V21.53h8.49v8A1.07,1.07,0,0,1,20.43,30.64Z"/><rect class="cls-6" x="12.99" y="12.17" width="8.49" height="9.14"/><path class="cls-7" d="M11.66,30.67H5.32a1.08,1.08,0,0,1-1.07-1.08V26.26h8.51v4.91A1.44,1.44,0,0,0,11.66,30.67Z"/><path class="cls-1" d="M6.8,28.5h3.5a.54.54,0,0,0,.38.35c.12.4.35.66.63.66s.72-.58.72-1.31-.32-1.3-.72-1.3-.51.26-.63.65a.56.56,0,0,0-.38.35H5l0,0a.42.42,0,0,0-.1.28.39.39,0,0,0,.1.28l0,0H5.3v.22h.07a.14.14,0,0,1,.14.14.13.13,0,0,1-.14.13H5.3v.36h.6v-.07c0-.11,0-.16.14-.16s.14.05.14.16v.07h.6V29H6.71a.14.14,0,0,1-.14-.13.14.14,0,0,1,.14-.14h.07v-.21Zm4.5.46c-.05,0-.18-.26-.18-.75s.13-.75.18-.75.19.27.19.75S11.36,29,11.3,29Z"/><path class="cls-6" d="M5.05,28.2a.29.29,0,0,0,0,.14h5.19v-.27H5.09A.34.34,0,0,0,5.05,28.2Z"/><path class="cls-6" d="M10.44,28.07v.27a.35.35,0,0,0,.19.32,2.16,2.16,0,0,1-.05-.46,2.24,2.24,0,0,1,.05-.46A.37.37,0,0,0,10.44,28.07Z"/><path class="cls-6" d="M11.31,27.06c-.21,0-.4.24-.5.59a.1.1,0,0,0,0,0,2.1,2.1,0,0,0-.06.51,2,2,0,0,0,.06.51.13.13,0,0,1,0,.05c.1.35.29.59.5.59s.56-.53.56-1.15S11.61,27.06,11.31,27.06Zm0,2.06c-.23,0-.34-.47-.34-.91s.11-.91.34-.91.34.48.34.91S11.54,29.12,11.3,29.12Z"/><path class="cls-1" d="M11.86,11.64l.33-1.16-.95-.75,1.21,0,.41-1.13.42,1.13,1.2,0-.94.75.32,1.16-1-.67Z"/><polygon class="cls-6" points="12.86 10.75 13.55 11.21 13.33 10.41 13.98 9.9 13.15 9.86 12.86 9.08 12.57 9.86 11.74 9.9 12.4 10.41 12.17 11.21 12.86 10.75"/><path class="cls-1" d="M1.11,17.37l.33-1.16L.5,15.47l1.2-.05.41-1.13.42,1.13,1.2.05-.94.74.33,1.16-1-.67Z"/><polygon class="cls-6" points="2.12 16.49 2.81 16.95 2.58 16.15 3.23 15.63 2.4 15.6 2.12 14.82 1.83 15.6 1 15.63 1.65 16.15 1.42 16.95 2.12 16.49"/><path class="cls-1" d="M22.5,17.37l.32-1.16-.94-.74,1.2-.05.42-1.13.41,1.13,1.21.05-.95.74.33,1.16-1-.67Z"/><polygon class="cls-6" points="23.5 16.49 24.19 16.95 23.96 16.15 24.62 15.63 23.78 15.6 23.5 14.82 23.21 15.6 22.38 15.63 23.03 16.15 22.8 16.95 23.5 16.49"/><path class="cls-1" d="M1.11,28l.33-1.16L.5,26.06l1.2,0,.41-1.13L2.53,26l1.2,0-.94.74L3.12,28l-1-.67Z"/><polygon class="cls-6" points="2.12 27.07 2.81 27.54 2.58 26.73 3.23 26.22 2.4 26.19 2.12 25.41 1.83 26.19 1 26.22 1.65 26.73 1.42 27.54 2.12 27.07"/><path class="cls-1" d="M22.5,28l.32-1.16-.94-.74,1.2,0,.42-1.13L23.91,26l1.21,0-.95.74L24.5,28l-1-.67Z"/><polygon class="cls-6" points="23.5 27.07 24.19 27.54 23.96 26.73 24.62 26.22 23.78 26.19 23.5 25.41 23.21 26.19 22.38 26.22 23.03 26.73 22.8 27.54 23.5 27.07"/><path class="cls-1" d="M7,34.25l.33-1.15-.94-.75,1.2-.05L8,31.17l.42,1.13,1.2.05-.94.75L9,34.25l-1-.66Z"/><polygon class="cls-6" points="8.04 33.37 8.74 33.83 8.51 33.03 9.16 32.52 8.33 32.48 8.04 31.7 7.76 32.48 6.92 32.52 7.58 33.03 7.35 33.83 8.04 33.37"/><path class="cls-1" d="M16.5,34.25l.32-1.15-.94-.75,1.2-.05.42-1.13.42,1.13,1.2.05-.95.75.33,1.15-1-.66Z"/><polygon class="cls-6" points="17.5 33.37 18.19 33.83 17.96 33.03 18.62 32.52 17.79 32.48 17.5 31.7 17.21 32.48 16.38 32.52 17.03 33.03 16.81 33.83 17.5 33.37"/><path class="cls-1" d="M12.43,17.49c0-.76-.47-.78-.41-1.09a.82.82,0,0,0-.3-.71c-.13-.12-.07-.08,0-.22a1.87,1.87,0,0,0,.2-.72,1.08,1.08,0,0,0-.71-.94.91.91,0,0,0-1,.25c-.11.1-.24-.08-.35-.18s-.06-.32-.22-.62a1.16,1.16,0,0,0-1.08-.6,1,1,0,0,0-.85.51c-.06.07-.17-.08-.17-.08a1,1,0,0,0-1.13.15c-.31.3-.06.79-.18.9s-.39,0-.63.41.14.75-.06.88a1,1,0,0,0-.59.83c0,.43.26.63.18.75a.86.86,0,0,0-.28.62c0,.35.28.52.27.69s-.35.25-.32.74a1,1,0,0,0,.52.92c.28.15.41,0,.45.21a.88.88,0,0,0,.9.62c.56,0,.54-.57.72-.29a5.92,5.92,0,0,1,.46,1.67,13.05,13.05,0,0,1,0,2.07,3.06,3.06,0,0,1-.42,1.43,1,1,0,0,1-.69.39l-.16.14h.49a3.33,3.33,0,0,0,1.2.22,3.5,3.5,0,0,0,1.05-.22h.78v-.15c-.56,0-.73,0-.95-.19a1.74,1.74,0,0,1-.49-.9,5.69,5.69,0,0,1-.16-1.54A19.09,19.09,0,0,1,8.63,21,3.41,3.41,0,0,1,9,20c.08-.14.06-.15.17,0a.75.75,0,0,0,.72.14c.3-.06,1,.77,1.71.08a1.35,1.35,0,0,0,.34-1.65C11.77,18.23,12.44,18.24,12.43,17.49ZM7.87,20.17c0,.1-.08,0-.08,0a1.35,1.35,0,0,1-.22-.35.85.85,0,0,1-.09-.36c0-.09.07-.13.12-.22s.08-.28.16-.19a.8.8,0,0,1,.1.42A3.84,3.84,0,0,1,7.87,20.17Zm.76-.53a2.57,2.57,0,0,1-.2.3c0,.07-.08.1-.12,0a3.44,3.44,0,0,1-.19-.76,1.16,1.16,0,0,1,0-.5c0-.08,0,0,.06.1a1.51,1.51,0,0,0,.25.42c.07.09.16.05.24.13S8.68,19.53,8.63,19.64Z"/><path class="cls-6" d="M5.44,28.59a.27.27,0,0,1,0,.53v.09h.33a.27.27,0,0,1,.54,0h.33v-.09a.28.28,0,0,1-.2-.26.28.28,0,0,1,.2-.27V28.5H5.44Z"/><path class="cls-6" d="M13,5.25A34.45,34.45,0,0,1,23.64,6.9l.13-.36A35.75,35.75,0,0,0,13,4.89,35.29,35.29,0,0,0,2.2,6.54l.13.36A34.46,34.46,0,0,1,13,5.25Z"/><path class="cls-6" d="M2.57,7.58,2.74,8A32.5,32.5,0,0,1,13,6.41,32.22,32.22,0,0,1,23.24,8l.16-.46A33.21,33.21,0,0,0,13,6,33.23,33.23,0,0,0,2.57,7.58Z"/><path class="cls-6" d="M2.86,7,3,7.22A33.7,33.7,0,0,1,13,5.73,33.68,33.68,0,0,1,23,7.22L23.11,7A34.23,34.23,0,0,0,13,5.47,34.3,34.3,0,0,0,2.86,7Z"/><path class="cls-6" d="M1,2.2l.33,1a19.16,19.16,0,0,1,2.48-.77l-.23-1A26.59,26.59,0,0,0,1,2.2Z"/><path class="cls-6" d="M22.34,2.44a22.09,22.09,0,0,1,2.32.71l.29-1c-.73-.26-1.53-.49-2.38-.7Z"/><path class="cls-6" d="M20.54,2.06c.4.07.78.15,1.15.23l.22-1-1.14-.23Z"/><path class="cls-6" d="M4.28,1.26l.22,1L5.58,2,5.36,1Z"/><path class="cls-6" d="M8.77,3.93,8.52,4,8.13,4,7.92,4l.15,1L9,4.89l-.11-1Z"/><path class="cls-6" d="M5.93,3.31l-.25,0-.08,0,.18.87h.08l.23-.05.34-.06-.15-.88Z"/><path class="cls-6" d="M9.65,3.84l-.26,0-.27,0H9.05l.1,1,.59,0Z"/><path class="cls-6" d="M6.11,4.32l-.23,0-.36.07-.2,0,.19,1c.36-.07.74-.15,1.11-.21l-.17-1Z"/><path class="cls-6" d="M7.66,2.42l.07.45h0l.19,0,.43,0,.23,0,.17,0-.1-.9c-.61.06-1.21.13-1.79.21L7,2.49C7.32,2.44,7.66,2.42,7.66,2.42Z"/><path class="cls-6" d="M8,3,7.77,3h0l.14.88h0l.18,0,.2,0L8.17,3Z"/><path class="cls-6" d="M9,2.72l.25,0,.3,0-.08-.9-.64.05.1.91Z"/><path class="cls-6" d="M9,2.86l-.35,0-.27,0H8.32l.11.88H8.5l.23,0,.38,0,.24,0,.29,0-.08-.89-.26,0Z"/><path class="cls-6" d="M5.29,3.28l.36-.07.25,0,.35-.06-.08-.44s.29-.08.65-.15l-.08-.44c-.66.1-1.29.21-1.91.34l.2.92Z"/><path class="cls-6" d="M4.69,2.44l-.15,0,.21.93.14,0Z"/><path class="cls-6" d="M5,4.55l.21,1,.15,0-.19-1Z"/><path class="cls-6" d="M5.49,4.3l.15,0L5.46,3.4l-.15,0-.24,0-.29.06L5,4.41l.27-.06Z"/><path class="cls-6" d="M20.87,3.5l-.38-.07-.23-.05h0l-.17.87h0l.22,0,.37.07.24.06.28.06.19-.87-.28-.06Z"/><path class="cls-6" d="M17.89,3l-.12.88.38,0h0l.14-.88h-.05Z"/><path class="cls-6" d="M19.77,3.29l-.15.87h.05l.26,0,.18-.87-.28-.05Z"/><path class="cls-6" d="M21.17,3.42l.26.06.21-1-.28-.06-.2,1Z"/><path class="cls-6" d="M16.83,3.91l-.27,0-.08,1,.41,0L17,3.93Z"/><path class="cls-6" d="M18.08,4.06l-.39,0-.24,0-.3,0L17,4.9,18,5l.15-.94Z"/><path class="cls-6" d="M17.59,2.81a2,2,0,0,1,.24,0l.41.05h.08l.07-.47s.34,0,.71.06l.07-.43C18.59,2,18,1.9,17.38,1.84l-.12.93Z"/><path class="cls-6" d="M17.11,2.75l.13-.92-.49-.05-.08.92.28,0Z"/><path class="cls-6" d="M20.66,4.52l-.32-.07-.27,0-.35-.07-.13,0-.16.93,1.1.22.2-.92Z"/><path class="cls-6" d="M20.88,4.57l-.2.92.29.06.21-.92-.24,0Z"/><path class="cls-6" d="M17.1,3.79l.39,0h.14L17.74,3l-.18,0-.36,0-.28,0-.27,0-.07.88.29,0Z"/><path class="cls-6" d="M19.88,2.66l-.08.48.11,0,.38.07.26.06.34.07.13,0,.19-1c-.61-.12-1.24-.24-1.9-.33l-.07.43A5.62,5.62,0,0,1,19.88,2.66Z"/><path class="cls-6" d="M15.35,2.75c-.17,0-.34,0-.51,0l-.31,0h-.06l0,.89h.38l.48,0,.33,0,.39,0,.08-.88-.41,0Z"/><path class="cls-6" d="M15.28,3.78h-.07l-.05,1,.75,0,.09-1-.38,0Z"/><path class="cls-6" d="M13.85,2.68l0,.89h.46l.05-.89h-.48Z"/><path class="cls-6" d="M15.36,1.69l0,.91h0l.33,0,.41,0,.08-.91Z"/><path class="cls-6" d="M12,2.68h-.42l0,.89h.52l0-.88Z"/><path class="cls-6" d="M10.83,2.58l.44,0h.25l.49,0h.08V2l.77,0V1.64c-.7,0-1.4,0-2.09.05l.06.89Z"/><path class="cls-6" d="M13.86,2v.51H14l.55,0h.32l.32,0,0-.9c-.73,0-1.47-.06-2.22-.05V2C13.38,2,13.86,2,13.86,2Z"/><path class="cls-6" d="M10.67,2.59l-.05-.89-.49,0,.08.89.35,0Z"/><path class="cls-6" d="M10.62,3.77l-.31,0,.09,1,.41,0-.05-1Z"/><path class="cls-6" d="M10.9,3.61l.39,0h.17l0-.88h-.18l-.4,0-.31,0-.31,0,.08.89.31,0Z"/><path class="cls-6" d="M14.81,3.75l-.32,0h-.67l0,1L15,4.73l.06-1Z"/><path class="cls-6" d="M12,3.71l-.44,0H11.3l-.39,0,0,1,1.21-.05,0-1Z"/><path class="cls-6" d="M3.37,4.79l.21,0-.22-.86-.9.24L2.71,5l.66-.19Z"/><path class="cls-6" d="M3.5,3.84l.22.86.59-.14h0l-.2-.86h0Z"/><path class="cls-6" d="M2.48,5.2h0l.28.94L3.21,6,3,5.06Z"/><path class="cls-6" d="M2.65,3.92,2.41,3l-.54.18.25.85h0Z"/><path class="cls-6" d="M4.06,3.55h0l-.22-.92c-.45.11-.92.25-1.31.37l.24.88C3.21,3.76,3.64,3.65,4.06,3.55Z"/><path class="cls-6" d="M2.56,5l-.24-.86-.13,0h0l.25.85h0Z"/><path class="cls-6" d="M4.36,4.7h0L3.11,5l.24,1,1.24-.32Z"/><path class="cls-6" d="M22,4.67l.23-.86-.16,0-.21.86h0Z"/><path class="cls-6" d="M22.91,3.85l.25-1-.87-.24-.24,1,.85.22Z"/><path class="cls-6" d="M22.54,5l-.76-.19-.22.92.77.2L22.59,5Z"/><path class="cls-6" d="M23.3,2.94l-.25,1c.25.06.5.13.74.21l.27-.92C23.9,3.12,23.62,3,23.3,2.94Z"/><path class="cls-6" d="M22.73,5l-.26.9.72.2.27-.89-.26-.08Z"/><path class="cls-6" d="M22.88,4l-.55-.14-.23.86.46.12.25.07.33.09.24-.86L22.89,4Z"/><path class="cls-6" d="M23.28,5l.22.06.25-.85-.23-.07Z"/><path class="cls-8" d="M7.13,13.22a.61.61,0,0,0-.5.26.48.48,0,0,0-.09.5c0,.08.12.2.1.26s0,.1-.21.09a.57.57,0,0,0-.6.4.53.53,0,0,0,.16.64c.13.1,0,.19-.07.21a.85.85,0,0,0-.56.35.91.91,0,0,0,0,.86c.08.15.26.16.12.29a.79.79,0,0,0-.3.6c0,.34.1.47.23.48s.18,0,.2.06,0,.1-.09.14a.65.65,0,0,0-.43.63,1,1,0,0,0,.58.85c.19.05.34,0,.36.12s0,.25.21.41a.69.69,0,0,0,.56.18,1,1,0,0,0,.46-.32.77.77,0,0,0,.07-.58c-.06-.14-.06-.19,0-.25s.31-.26.29-.47a2.71,2.71,0,0,0-.15-.54c0-.06,0-.08.06-.05s.19.19.32.19a.5.5,0,0,0,.42-.28c0-.18.08-.32.11-.28s.07.05.08.25-.18.33-.09.54a.53.53,0,0,0,.31.37c.26.09.32-.05.4,0s0,.24.12.5a.59.59,0,0,0,.67.25c.2,0,.15-.13.25,0a.8.8,0,0,0,.8.35,1.07,1.07,0,0,0,.72-.35,1,1,0,0,0,.23-.91c-.07-.47-.4-.59-.34-.67s.16,0,.34-.11a.84.84,0,0,0,.41-.77.75.75,0,0,0-.44-.65c-.2-.13-.1-.16,0-.2a.65.65,0,0,0-.2-.76c-.31-.25-.06-.25,0-.54a.91.91,0,0,0,0-.82.65.65,0,0,0-.92-.34c-.48.19-.37.65-.52.39S10,14,9.56,14s.06-.08,0-.4-.22-.66-.83-.74-.75.27-.73.37.06.14,0,.17-.07.09-.17.06S7.47,13.17,7.13,13.22Z"/><path class="cls-9" d="M9.18,26.11a3.31,3.31,0,0,1-.51-.75,6.38,6.38,0,0,1-.26-1.45c0-.45,0-1.58,0-2a7.4,7.4,0,0,1,.08-1,2.42,2.42,0,0,1,.31-.84A1.12,1.12,0,0,0,9,19.75s0-.09,0,0-.16.21-.22.32-.17.23-.26.23-.21-.09-.27-.32S8,19.37,8,19.14l-.09-.41a.18.18,0,0,0-.11,0c-.06,0,0,.07,0,.11s.16.62.2.84a2.52,2.52,0,0,1,.05.64.17.17,0,0,1-.29.09,1.19,1.19,0,0,0-.2-.22s0,.12.07.23A5.49,5.49,0,0,1,8,21.66a11.79,11.79,0,0,1,.12,1.62c0,.46-.06,1.19-.08,1.45a1.79,1.79,0,0,1-.77,1.35,2.94,2.94,0,0,0,1.06.21A1.48,1.48,0,0,0,9.18,26.11Z"/><path class="cls-1" d="M14.71,13.62A1.08,1.08,0,0,1,15,13a.46.46,0,0,1,.28-.14c.1,0,.22,0,.25.1a1,1,0,0,1-.11.49,2.64,2.64,0,0,0-.17.7,1.34,1.34,0,0,0,0,.46s.08,0,.1-.06.11-.4.17-.55a2.55,2.55,0,0,1,.61-.79c.28-.21.7-.4.92-.23s-.19.46-.26.53-.58.64-.68.77a1.5,1.5,0,0,0-.16.3c0,.09-.09.2-.13.27a1.29,1.29,0,0,0-.13.32.93.93,0,0,0-.09.35,3.45,3.45,0,0,0-.06.57c0,.13,0,.47,0,.61s.06.55.11.74a4.84,4.84,0,0,0,.21.61,1.09,1.09,0,0,0,.21.46c.11.1.19.17.27.14s0-.09,0-.12a.21.21,0,0,1-.07-.14c0-.06.07,0,.13,0s0-.08,0-.13-.11,0-.15-.1,0-.16,0-.18,0,.09.12.1.13-.06.14-.15a.21.21,0,0,0-.13-.21.34.34,0,0,1-.16-.3c0-.08.17,0,.13-.08s-.26-.06-.31.05-.08,0-.1-.13A.32.32,0,0,1,16.1,17c.07-.06.32-.19.34-.25a.68.68,0,0,1,.16-.4,1.19,1.19,0,0,1,.57-.27,3.64,3.64,0,0,1,.62-.08.54.54,0,0,0,.26-.07s0,.08,0,.16,0,.16,0,.13a.73.73,0,0,0,.14-.1s.07.07,0,.23-.08.21,0,.24a.09.09,0,0,0,.13-.05s.1.08.05.25-.19.15-.15.27a.13.13,0,0,0,.21.07s.05.09,0,.2-.14.18-.14.28.12.1.17.1.08,0,.06.06a.45.45,0,0,0-.12.21c0,.13,0,.13,0,.18s0,.16,0,.2-.09,0-.12,0-.07,0,0,0,.1.08.13.13a.08.08,0,0,1,0,.11s-.11,0-.14.08,0,.15,0,.16.09,0,.08.1,0,.08.06.05a.52.52,0,0,0,.24-.3,2,2,0,0,0,.1-.71,6.93,6.93,0,0,0-.12-.85,4.88,4.88,0,0,1,0-.95,3.82,3.82,0,0,0,0-.88,2.34,2.34,0,0,0-.18-.85,6,6,0,0,0-.51-1c-.18-.23-.37-.4-.45-.49s-.15-.25-.07-.35.25-.22.59,0a2,2,0,0,1,.7.68,3.25,3.25,0,0,1,.38,1c.05.23.07.59.09.72s0,.19.08.19.08-.07.11-.19a3.52,3.52,0,0,0,0-1.12,7.07,7.07,0,0,0-.21-.78,2.14,2.14,0,0,1-.19-.5c0-.11.06-.17.18-.14a1.44,1.44,0,0,1,.48.57,3.65,3.65,0,0,1,.25.68,2.9,2.9,0,0,1,.09.62,3.8,3.8,0,0,0,0,.54s.06,0,.07-.09.05-.44.05-.57a4.72,4.72,0,0,0,0-.52,4.3,4.3,0,0,1,0-.66c0-.07.08-.12.2-.06a1.23,1.23,0,0,1,.44.79,1.91,1.91,0,0,1-.07.82,3.26,3.26,0,0,1-.17.47c0,.13-.09.23-.05.27s.09,0,.13-.07a3.21,3.21,0,0,0,.16-.41c0-.15.09-.41.14-.52s.1-.16.17-.11a.81.81,0,0,1,.18.52,2.22,2.22,0,0,1-.16.72,3.92,3.92,0,0,1-.34.68c-.13.16-.24.29-.23.34s.08.05.12,0l.27-.37a1,1,0,0,0,.15-.36c0-.1,0-.14.05-.12a1,1,0,0,1,.1.62,2.07,2.07,0,0,1-.31.65c-.12.13-.31.24-.31.31s.18,0,.23,0a1.85,1.85,0,0,0,.25-.24.25.25,0,0,0,.07-.14s.05-.06.07,0a1.26,1.26,0,0,1,0,.5,2.21,2.21,0,0,1-.18.4c-.05.07-.17.11-.15.18s.1.06.14,0a2,2,0,0,1,.15-.18s.07,0,.07.14-.13.29-.13.39a.18.18,0,0,0,.09.18.13.13,0,0,1,0,.19.86.86,0,0,1-.24.28c-.12.11-.05.17,0,.24a3.11,3.11,0,0,1,.2.3c0,.05,0,.08-.06.14a.46.46,0,0,1-.23.09c-.09,0-.12,0-.13.05s-.05.26-.14.31-.12.1-.07.16.34.16.33.4c0,0-.07,0-.11,0a.25.25,0,0,0-.17,0c-.05,0-.15,0-.16.06a2,2,0,0,0,.07.3c0,.12,0,.1-.06.08s-.17-.2-.24-.22-.16-.05-.15.05,0,.32,0,.37-.1.22-.32,0-.32,0-.3,0-.15.1-.28,0S19,21,19,21.17s-.16.08-.19-.05-.18-.16-.17,0-.1.3-.07.37-.15,0-.21-.09-.11.1,0,.17-.11,0-.14,0a1.24,1.24,0,0,0,.08.45,3.89,3.89,0,0,1,.16.44.56.56,0,0,0,.17.28.64.64,0,0,1,.13.24c0,.06.16.14.21.21l.11.11a.64.64,0,0,1,.13.12,1,1,0,0,0,.12.17,1.72,1.72,0,0,1,.26.23c.06.06.15.18.2.24s.08.17.15.19.21.08.29,0,.09-.08.11-.14,0-.07.05-.13.05-.06.05-.12a.88.88,0,0,0,0-.24,1.32,1.32,0,0,0-.12-.35,2.49,2.49,0,0,0-.15-.29,3.48,3.48,0,0,1-.23-.38,1.53,1.53,0,0,0-.11-.29.88.88,0,0,1-.11-.5.44.44,0,0,1,.37-.41,1,1,0,0,1,.87.38.6.6,0,0,1,.31.25,1.1,1.1,0,0,1-.13.77c-.11.21-.15.33-.17.3a1.44,1.44,0,0,1-.09-.2c0-.09-.21-.23-.25-.36a1.22,1.22,0,0,1,0-.42.26.26,0,0,0-.31-.26c-.17,0-.18.18,0,.39s.34.63.49.82A1.88,1.88,0,0,1,21,24a.9.9,0,0,1-.33.68h0a.64.64,0,0,1-.18.14,2.3,2.3,0,0,1-.45,0,.94.94,0,0,1-.24.33,3.12,3.12,0,0,1-.59.44,5.32,5.32,0,0,1-.77.26A1.25,1.25,0,0,0,18,26c-.1.05-.26.16-.25.33s0,.27.15.32a.61.61,0,0,0,.42,0,1.74,1.74,0,0,1,.41-.1,1,1,0,0,0,.4-.07c.1-.06.19,0,.24.09a.51.51,0,0,1,.07.4c-.05.14-.19.39-.31.64a1.77,1.77,0,0,0-.21.71,1.17,1.17,0,0,0,.07.53.52.52,0,0,1,0,.36.25.25,0,0,1-.3.13.81.81,0,0,0-.29-.06c-.08,0-.12,0-.21.18s-.11.27-.22.31-.16,0-.2.05-.16.23-.24.19a.26.26,0,0,1-.13-.18.64.64,0,0,1,0-.14.2.2,0,0,0-.13,0c-.06,0,0,.09-.08.14a.23.23,0,0,1-.17.08c-.05,0-.07-.05-.1-.12s-.05-.1-.07-.05-.08.16-.14.18-.16-.08-.15-.26a.41.41,0,0,0-.06-.17.42.42,0,0,1,.08-.45.78.78,0,0,1,.58-.31,6.47,6.47,0,0,0,.83,0,.42.42,0,0,0,.25-.24,2.57,2.57,0,0,0,.21-.49,1.24,1.24,0,0,0,0-.32c0-.1,0-.27-.18-.32a3.77,3.77,0,0,0-.72-.1,3,3,0,0,1-.88-.18,1.54,1.54,0,0,1-.44-.3,2.21,2.21,0,0,1-.3-.45c-.05-.13-.06-.13-.06-.13a1,1,0,0,0-.21.05.44.44,0,0,0-.18.16c0,.09-.13.18-.09.26a.91.91,0,0,0,.38.2.59.59,0,0,1,.31.25.41.41,0,0,1,0,.4c-.09.14-.19.27-.27.38s-.23.22-.25.35a1,1,0,0,0,0,.55c.09.2.12.43-.13.46s-.27,0-.36,0-.11.08-.11.15,0,.2,0,.27-.14.11-.23.18-.08.07-.12.17a.14.14,0,0,1-.19.1.27.27,0,0,1-.12-.16c0-.09-.14-.13-.19,0s-.12.24-.22.18-.14-.19-.2-.21a.15.15,0,0,0-.16.1c0,.08-.13.16-.2.1s-.08-.26-.11-.35-.07-.1-.06-.22a.57.57,0,0,1,.42-.51,3.47,3.47,0,0,0,.68-.18,4.2,4.2,0,0,0,.55-.29.54.54,0,0,0,.27-.36.94.94,0,0,0-.06-.51,2.1,2.1,0,0,0-.14-.38c-.05-.12-.34-.63-.44-.78a1.31,1.31,0,0,0-.17-.28.17.17,0,0,1-.11-.14c0-.09.06-.22.17-.45a4.89,4.89,0,0,1,.48-.77,5,5,0,0,1,1-.83,2.58,2.58,0,0,1,.79-.23c.24,0,.28-.07.31-.11s.08-.05,0-.13a4.31,4.31,0,0,1-.72-.6,2.42,2.42,0,0,1-.36-.48.58.58,0,0,0-.06-.17,1.88,1.88,0,0,1-.13-.38,1.62,1.62,0,0,1,0-.5c.05-.16.15-.22.1-.28a.15.15,0,0,0-.23,0,.82.82,0,0,1-.22.19c-.08.07-.22.07-.18,0s.18-.38.09-.44a.6.6,0,0,0-.52,0,2.11,2.11,0,0,1-.41.14,1.41,1.41,0,0,0-.33.24c-.07.07-.29.12-.3,0s0-.28-.11-.27-.35,0-.35-.1.25-.26.21-.41-.16-.17-.16-.24.12-.06.26-.07.16,0,.22-.19.1-.3.18-.19.2.32.3.35a2.44,2.44,0,0,1,.42.12,1,1,0,0,0,.46.06c.17,0,.21,0,.23-.16s-.05-.24-.28-.36-.24-.14-.15-.19,0-.1,0-.13a3.19,3.19,0,0,0-.39-.22.34.34,0,0,0-.24,0s-.09.22-.17.28-.13.1-.19,0-.06-.26-.29-.22-.37,0-.35-.09.22-.29.24-.44-.07-.12-.15-.32.1-.21.25-.15.19.08.24,0S14,18,14,18s.1.13.16.21.05,0,.12.16.07.15.13.09.17-.12.24,0l.17.25c.08.1.14.23.25.26s.13,0,0-.19-.43-.47-.53-.54-.09,0-.11.06-.08,0-.11-.07-.21-.41-.3-.4-.08.15-.18.23-.17-.1-.24-.25a2.12,2.12,0,0,1-.2-.52c0-.13,0-.27.12-.2s.15.14.21.2.15.18.23.19.08,0,0-.08a4.46,4.46,0,0,1-.37-.45,2.7,2.7,0,0,1-.3-.83,1.43,1.43,0,0,1,0-.78c.08-.19.16-.25.23-.21a.4.4,0,0,1,.19.3,3.87,3.87,0,0,0,.2.82c.1.27.13.52.23.58s.09,0,.08-.07-.25-.89-.3-1.13a3.8,3.8,0,0,1-.15-1,1.67,1.67,0,0,1,.1-.7c.09-.15.23-.28.32-.12a.54.54,0,0,1,.08.35c0,.14.05,1,.1,1.2s.08.33.15.32.08-.11.09-.2,0-.76,0-1S14.69,13.83,14.71,13.62Z"/><path class="cls-6" d="M14,29.18a.44.44,0,0,0-.19.36c0,.12,0,.09,0,.14a.23.23,0,0,1-.25,0s-.07-.06-.06-.18a.36.36,0,0,1,.13-.27.49.49,0,0,1,.34-.18,3.71,3.71,0,0,0,.55-.13l.36-.18a1.06,1.06,0,0,0,.33-.3,1.11,1.11,0,0,0,.19-.35.62.62,0,0,0,0-.27,1.56,1.56,0,0,0-.11-.41c-.05-.12-.22-.44-.31-.66a3.28,3.28,0,0,0-.25-.46c-.1-.17-.13-.22-.13-.31a.89.89,0,0,1,.11-.33,2.69,2.69,0,0,1,.23-.45c.08-.12.17-.2.25-.3a3,3,0,0,1,.31-.38,2,2,0,0,1,.42-.29c.11,0,.25-.12.41-.17a3.24,3.24,0,0,1,.49-.13.62.62,0,0,0,.28-.08c.09-.05.14-.11.2-.07a.67.67,0,0,1,.14.15c0,.05.11.08.06.14s-.27.1-.41.18a2.9,2.9,0,0,0-.57.44,2.13,2.13,0,0,0-.35.49c-.05.15-.1.25-.13.38s0,.22-.05.3-.11,0-.23.09-.48.2-.48.53.26.39.38.45.2.09.23.21a.67.67,0,0,1-.12.48,2.13,2.13,0,0,0-.37.83.9.9,0,0,0,.11.42c0,.09,0,.13-.05.17a1,1,0,0,1-.3,0c-.09,0-.21,0-.25.11a1.27,1.27,0,0,0,0,.34.2.2,0,0,1-.17.18c-.09,0-.21,0-.24,0a.25.25,0,0,1-.05-.21.29.29,0,0,1,.17-.2c.1,0,.17-.08.18-.13s0-.09-.16,0-.25.11-.29.2a.48.48,0,0,0-.05.23c0,.1,0,.17-.06.18s-.25,0-.27-.06-.07-.19.05-.3a.92.92,0,0,1,.32-.18c.09-.05.09-.12,0-.1A1,1,0,0,0,14,29.18Z"/><path class="cls-6" d="M16,22a2.83,2.83,0,0,0,.51.83,4.88,4.88,0,0,0,.53.49c.21.16.29.26.39.34s.29.26.4.35.14.09.14.16,0,.1-.06.09,0,0-.13,0a1.12,1.12,0,0,0-.48.15c-.12.08-.29.08-.38.2s-.28.19-.36.31a3.81,3.81,0,0,0-.3.49,1.32,1.32,0,0,0-.08.47,1.65,1.65,0,0,0,.11.45.81.81,0,0,0,.44.48,2.52,2.52,0,0,0,1.06.24c.34,0,.7,0,.83.2a.77.77,0,0,1,.06.56,3.69,3.69,0,0,1-.29.87c-.13.19-.58.23-.78.23a1.63,1.63,0,0,0-.7.05.46.46,0,0,0-.23.43.21.21,0,0,0,.21.15s0-.18,0-.25a.34.34,0,0,1,.28-.27c.22,0,.31,0,.31,0s0,0-.06.06-.22,0-.28.07a.33.33,0,0,0-.13.26c0,.1,0,.18.21.2s.15-.11.2-.22a.46.46,0,0,1,.24-.27c.11,0,.22-.09.27-.07s0,.07-.07.09-.26.11-.28.2-.07.18,0,.24.19.13.29.08a.5.5,0,0,0,.24-.3c0-.15.11-.27.3-.27a2.11,2.11,0,0,1,.37.06c.05,0,0-.15,0-.32a2.68,2.68,0,0,1,0-.88c.09-.21.21-.56.32-.77s.18-.32.13-.41a.3.3,0,0,0-.35-.12,4.67,4.67,0,0,1-.82.21c-.24,0-.44-.07-.5-.25a.77.77,0,0,1,.15-.68,1,1,0,0,1,.7-.32,1.7,1.7,0,0,0,.83-.24,1.42,1.42,0,0,0,.5-.47c.1-.16.08-.3.18-.25a.66.66,0,0,0,.49,0,.65.65,0,0,0,.32-.5,1.36,1.36,0,0,0-.09-.68,5.09,5.09,0,0,0-.47-.82,2.16,2.16,0,0,1-.28-.59c0-.15,0-.29.19-.31a.93.93,0,0,1,.52.15c.13.1.1.08.11.13s-.07.28,0,.37.14.32.22.36.17-.06.17-.31a.52.52,0,0,0-.28-.49,1.34,1.34,0,0,0-.21-.21c-.08,0-.36-.23-.55-.18s-.36.18-.27.57a4.7,4.7,0,0,0,.53,1,2,2,0,0,1,.23.81c0,.31-.16.45-.29.48a.66.66,0,0,1-.61-.16c-.18-.21-.26-.34-.37-.39l-.14-.17c-.07-.07-.06-.13-.15-.19a4,4,0,0,1-.5-.56,2,2,0,0,1-.34-.59c0-.13-.09-.25-.1-.32s0-.46-.07-.44-.12.13-.16.13,0-.23-.06-.26-.14,0-.23.07a.59.59,0,0,1-.24.19c-.06,0,0-.05-.09-.14s-.12-.23-.15-.16a1.54,1.54,0,0,1-.31.44c-.11.07,0-.26-.11-.31s-.05-.18-.19-.1a.21.21,0,0,0-.07.28s-.19,0-.21-.2a.11.11,0,1,0-.22,0C16,21.68,16,21.85,16,22Z"/><path class="cls-6" d="M16.17,17.17a.12.12,0,0,1,.08-.15c.11-.05.25-.15.35-.12a.57.57,0,0,1,.25.28c0,.09.08.28,0,.34a.3.3,0,0,1-.36,0c-.07-.06.08-.08.08-.08s.19,0,.21,0,0-.12-.26-.28A.61.61,0,0,0,16.17,17.17Z"/><path class="cls-10" d="M17.09,16.83s0-.09,0-.13-.09,0-.1,0,0,.11,0,.13S17.07,16.83,17.09,16.83Z"/><path class="cls-10" d="M17.24,16.73a.13.13,0,0,1,0-.09c0-.05,0-.09.08-.1s.09,0,.09,0a.17.17,0,0,1-.1.13S17.26,16.76,17.24,16.73Z"/><path class="cls-10" d="M14.08,18.56l0-.06s0,0,0,0,0-.06,0,0l.05.07S14.15,18.57,14.08,18.56Z"/><path class="cls-10" d="M13.72,18.71s0,.05.06.07,0,0,0,0a.08.08,0,0,0,0-.07s0,0,0,0S13.72,18.69,13.72,18.71Z"/><path class="cls-10" d="M13.69,19s-.06,0-.08,0,0,0,0,.07,0,0,.06,0,.06,0,.07,0A.09.09,0,0,0,13.69,19Z"/><path class="cls-10" d="M14,19.24a.21.21,0,0,0,0,.08,0,0,0,0,0,.06,0s0,0,0-.06,0,0,0,0S14,19.22,14,19.24Z"/><path class="cls-10" d="M13.63,20.75s0,0,0,0,0,0,0,0,.05,0,.05,0A0,0,0,0,0,13.63,20.75Z"/><path class="cls-10" d="M13.67,20.4s0,0-.06,0,0,0,0,.07a.07.07,0,0,0,.06,0S13.69,20.43,13.67,20.4Z"/><path class="cls-10" d="M13.94,20.93A.07.07,0,0,1,14,21s0,0,0,.07,0,0-.06,0a.1.1,0,0,1,0-.14Z"/><path class="cls-10" d="M14.7,16.94c0,.07,0,.12,0,.13s0,0,0,0,0-.06,0-.1S14.7,16.89,14.7,16.94Z"/><path class="cls-10" d="M14.79,17.21s-.12,0-.14,0,0,.05,0,.09a.14.14,0,0,0,.06.07s0,0,.05,0a.1.1,0,0,1,.05-.06s0,0,0-.07S14.84,17.17,14.79,17.21Z"/><path class="cls-10" d="M14.82,17.48s0,.08.07.11a.33.33,0,0,1,.06.1.1.1,0,0,1,0,.08.21.21,0,0,1-.1.14.08.08,0,0,1-.1,0s0-.05,0-.08a.07.07,0,0,1,.07,0s.08,0,.09,0,0,0,0-.07-.06-.05-.08-.1,0-.06,0-.08S14.8,17.46,14.82,17.48Z"/><path class="cls-10" d="M15.73,19.3a.09.09,0,0,0,0,.1s0,.05.06,0,0-.05.08,0l.13.07s.09.06.13,0a.13.13,0,0,0,.06-.09.49.49,0,0,1,0-.13s.07,0,.09,0l.08.09s.05.11.06.14a.17.17,0,0,0,.13.09c.06,0,.07,0,.1-.07s.07-.06,0-.07-.1,0-.12,0,0,0-.05-.06a.49.49,0,0,0-.08-.13.16.16,0,0,0-.14,0s0,0-.06,0-.05-.07-.07-.07-.08,0-.09,0a.25.25,0,0,0,0,.12s0,.06,0,.08a.09.09,0,0,1-.09,0s0,0-.07,0a.17.17,0,0,0-.13,0C15.78,19.27,15.74,19.26,15.73,19.3Z"/><path class="cls-10" d="M16.77,19.35s0,0,0,0,0-.06.05,0,0,0,0,.06,0,.05-.05.05,0,0-.05,0Z"/><path class="cls-10" d="M16.1,20.44l.08-.1a.18.18,0,0,0,.06-.09s0,0,.05,0a.61.61,0,0,1,.12.09c0,.05.06.09.1.09a.18.18,0,0,0,.11-.05s.06-.05.09,0a.08.08,0,0,1,0,.08s-.06,0-.09.05l-.08,0s0,0-.06,0a.14.14,0,0,1-.12-.07s0-.09-.08-.07-.12,0-.14.06S16.1,20.47,16.1,20.44Z"/><path class="cls-10" d="M17,20.21s0-.08.06-.07,0,0,.06,0,0,0,0,.07-.06,0-.1.05,0,0-.06,0S17,20.23,17,20.21Z"/><path class="cls-10" d="M17.72,20.66a.19.19,0,0,1,0-.14s0-.11,0-.12a.2.2,0,0,1,.11,0s.1.07.13.05,0,0,0-.06a.81.81,0,0,1,0-.22s.07,0,.09,0a1.44,1.44,0,0,0,.16.07c.05,0,.1.05.13,0s.06,0,.07,0a1.2,1.2,0,0,1,0-.19c0-.05,0-.06,0-.05a.86.86,0,0,1,.21.13.25.25,0,0,0,.17.07s0,0,0,0a.15.15,0,0,0,0-.1,1,1,0,0,1-.1-.18s0-.05,0-.06l.09,0,.12,0a.38.38,0,0,0,.15,0s.08,0,.08,0,0,.08,0,.09a.14.14,0,0,1-.14,0A.11.11,0,0,0,19,20a.08.08,0,0,0,0,.1.3.3,0,0,1,.07.15c0,.07-.05.15-.12.13s-.18-.09-.24-.1a.1.1,0,0,0-.12.09c0,.06-.06.1-.12.08a.65.65,0,0,0-.23-.07.11.11,0,0,0-.07.12c0,.06,0,.13-.05.13s-.17-.1-.23,0,0,.12-.06.14S17.72,20.68,17.72,20.66Z"/><path class="cls-10" d="M19,19.54s0,0,.1,0a.13.13,0,0,0,.12,0s.07,0,.08,0,0-.1.05-.1a.1.1,0,0,1,.09.06.15.15,0,0,1,0,.16c-.05,0-.08,0-.13,0s-.06,0-.09,0-.08.05-.12,0S19,19.58,19,19.54Z"/><path class="cls-10" d="M19.34,18.65c0,.06,0,.06,0,.11a.55.55,0,0,1,0,.18c0,.07,0,.08,0,.11s-.05,0-.08,0-.08,0-.07.06a.15.15,0,0,0,.07.11s0,0,.06,0a.17.17,0,0,1,.1-.09.06.06,0,0,0,.06-.05.2.2,0,0,0,0-.11,1.8,1.8,0,0,0-.08-.21c0-.05,0-.06,0-.11s0-.05-.05,0S19.34,18.61,19.34,18.65Z"/><path class="cls-10" d="M19.91,20s0,0,0-.07a.14.14,0,0,1,.12,0s.05,0,.07,0a.07.07,0,0,0,0-.08,2.14,2.14,0,0,1-.05-.23c0-.09-.06-.21,0-.26a.24.24,0,0,1,.15-.08c.06,0,.12,0,.12-.06a.2.2,0,0,0,0-.15,1.18,1.18,0,0,1-.14-.23.15.15,0,0,1,.05-.16c.06-.06.14-.09.16-.12s.05-.07,0-.1a.37.37,0,0,0-.15-.17c-.09-.06-.15-.1-.14-.16a.37.37,0,0,1,.1-.17s.06,0,.05-.08a.18.18,0,0,0-.09-.11.38.38,0,0,1-.13-.12s0-.06,0-.11l.09-.19a.08.08,0,0,0,0-.09.1.1,0,0,0-.08-.07s-.13,0-.18,0-.06,0-.06-.07a.16.16,0,0,1,0-.12s.05-.09,0-.1,0,0-.05,0a.87.87,0,0,1-.23,0,.11.11,0,0,1,0-.12c0-.05,0-.08,0-.11s0-.05-.06,0-.09.05-.1,0,0,0,0-.05l.21-.15s.08,0,.08,0,0,.09,0,.14,0,.17,0,.18a.33.33,0,0,0,.14,0,.33.33,0,0,1,.14,0c.07,0,.09,0,.08.06a.68.68,0,0,0-.11.21c0,.09,0,.09.07.08s.2,0,.26,0,0,.12,0,.19-.15.22-.16.29,0,.07,0,.09a1.24,1.24,0,0,1,.28.11c.05.05.06.1,0,.2s-.2.17-.15.23a1.28,1.28,0,0,0,.21.13c.09.05.13.11.11.16s-.16.16-.2.24-.09.1-.07.15.13.13.17.19a.15.15,0,0,1,0,.15.26.26,0,0,1-.17.15c-.1,0-.18,0-.17.1a1.44,1.44,0,0,0,.07.23.62.62,0,0,1,0,.23c0,.07,0,.09-.06.08s-.21,0-.22,0S19.94,20,19.91,20Z"/><path class="cls-10" d="M19.77,15.8s-.05-.06,0-.08.06-.05.07-.07,0-.08,0-.07a.13.13,0,0,1,.1.06.5.5,0,0,1,0,.2c0,.07,0,.21,0,.21s0,0-.05-.07a.8.8,0,0,0,0-.18s0-.06,0,0S19.82,15.79,19.77,15.8Z"/><path class="cls-10" d="M20.14,16.2s0-.11,0-.09,0,0,0,.07S20.14,16.25,20.14,16.2Z"/><path class="cls-10" d="M19.16,16.27s.1,0,.11,0a.34.34,0,0,0,0-.1.11.11,0,0,1,0-.08s0-.07,0-.06-.05,0-.07,0,0,0,0,.09A.39.39,0,0,0,19.16,16.27Z"/><path class="cls-10" d="M19.26,16.48s0-.07,0-.1,0-.06,0,0,0,.05,0,.08a.08.08,0,0,1,0,0,0,0,0,0,1-.05,0S19.26,16.49,19.26,16.48Z"/><polygon class="cls-11" points="4.75 40.28 0.99 40.28 0.12 37.12 4.75 37.12 4.75 40.28"/><polygon class="cls-12" points="4.75 40.28 1.96 41.47 1.96 38.32 4.75 37.12 4.75 40.28"/><rect class="cls-11" x="1.96" y="38.32" width="9.64" height="3.16"/><polygon class="cls-12" points="11.6 41.45 10.55 42.7 10.55 39.02 11.6 38.3 11.6 41.45"/><polygon class="cls-11" points="20.83 40.28 24.59 40.28 25.46 37.12 20.83 37.12 20.83 40.28"/><polygon class="cls-12" points="20.83 40.28 23.62 41.47 23.62 38.32 20.83 37.12 20.83 40.28"/><rect class="cls-11" x="13.98" y="38.32" width="9.64" height="3.16"/><polygon class="cls-12" points="13.98 41.45 15.03 42.7 15.03 39.02 13.98 38.3 13.98 41.45"/><rect class="cls-11" x="10.55" y="39.02" width="4.49" height="3.68"/><path class="cls-1" d="M3.28,40v-.08c0-.61.19-.89.46-.89s.47.28.47.89V40a1.5,1.5,0,0,1-.11.62l.16.15-.13.14L4,40.76a.34.34,0,0,1-.26.12C3.47,40.88,3.28,40.6,3.28,40Zm.57.61-.16-.17.13-.13.1.11A2.12,2.12,0,0,0,4,40v-.08c0-.46-.09-.65-.21-.65s-.21.19-.21.65V40c0,.47.08.66.22.66A.12.12,0,0,0,3.85,40.6Z"/><path class="cls-1" d="M4.38,40.35v-1.3h.25v1.32c0,.19.08.27.18.27s.18-.08.18-.27V39.05h.25v1.3c0,.35-.17.53-.43.53S4.38,40.7,4.38,40.35Z"/><path class="cls-1" d="M5.45,39.05h.67v.24H5.71v.54h.37v.24H5.71v.55h.42v.24H5.45Z"/><path class="cls-1" d="M6.3,39.05h.29a.5.5,0,0,1,.55.56v0a.52.52,0,0,1-.24.48l.27.75H6.9l-.24-.67h-.1v.66H6.3Zm.3.92c.17,0,.29-.11.29-.34v0c0-.24-.13-.33-.3-.33h0V40Z"/><path class="cls-1" d="M7.31,39.05H8v.24H7.57v.54h.37v.24H7.57v.55H8v.24H7.31Z"/><path class="cls-1" d="M8.16,39.05h.29a.5.5,0,0,1,.55.56v0a.52.52,0,0,1-.24.48l.27.75H8.76l-.24-.67H8.41v.66H8.16Zm.3.92c.17,0,.29-.11.29-.34v0c0-.24-.13-.33-.3-.33h0V40Z"/><path class="cls-1" d="M16.89,39.05h.26a.53.53,0,0,1,.57.59h0a.55.55,0,0,1-.55.61h0v.6h-.25Zm.29,1c.17,0,.28-.12.28-.36h0c0-.25-.11-.37-.28-.37h0V40Z"/><path class="cls-1" d="M17.83,40v-.08c0-.61.19-.89.46-.89s.47.28.47.89V40c0,.61-.19.89-.47.89S17.83,40.6,17.83,40Zm.67,0v-.08c0-.46-.08-.65-.21-.65s-.2.19-.2.65V40c0,.47.08.66.2.66S18.5,40.46,18.5,40Z"/><path class="cls-1" d="M18.94,39.05h.27c.38,0,.61.29.61.87V40c0,.58-.23.88-.61.88h-.27Zm.29,1.57c.19,0,.33-.17.33-.64v-.06c0-.47-.14-.64-.33-.64h0v1.34Z"/><path class="cls-1" d="M20,39.05h.67v.24h-.41v.54h.37v.24h-.37v.55h.42v.24H20Z"/><path class="cls-1" d="M20.85,39.05h.29a.5.5,0,0,1,.55.56v0a.52.52,0,0,1-.24.48l.27.75h-.27l-.25-.67h-.1v.66h-.25Zm.3.92c.17,0,.29-.11.29-.34v0c0-.24-.13-.33-.3-.33h0V40Z"/><path class="cls-1" d="M12.05,40.28h.67v.24h-.41v.54h.37v.24h-.37v.55h.42v.24h-.68Z"/><path class="cls-1" d="M12.85,42v-.26a.59.59,0,0,0,.3.1.17.17,0,0,0,.19-.19h0c0-.1,0-.18-.2-.38s-.3-.38-.3-.58h0a.41.41,0,0,1,.41-.44.49.49,0,0,1,.28.07v.26a.45.45,0,0,0-.25-.08.18.18,0,0,0-.19.18h0c0,.1,0,.15.2.35s.31.4.31.61h0a.43.43,0,0,1-.43.45A.7.7,0,0,1,12.85,42Z"/><path class="cls-13" d="M35.42,12.73h0A1.57,1.57,0,0,1,37,11.1a1.66,1.66,0,0,1,1.17.41l-.22.27a1.37,1.37,0,0,0-1-.36,1.23,1.23,0,0,0-1.2,1.29h0A1.22,1.22,0,0,0,37,14a1.47,1.47,0,0,0,.91-.32v-.78H37v-.32h1.3v1.26a1.94,1.94,0,0,1-1.26.48A1.54,1.54,0,0,1,35.42,12.73Z"/><path class="cls-13" d="M38.94,12.73h0a1.61,1.61,0,1,1,3.21,0h0a1.6,1.6,0,0,1-1.61,1.63A1.58,1.58,0,0,1,38.94,12.73Zm2.84,0h0a1.25,1.25,0,0,0-1.24-1.3,1.24,1.24,0,0,0-1.23,1.29h0A1.25,1.25,0,0,0,40.55,14,1.24,1.24,0,0,0,41.78,12.73Z"/><path class="cls-13" d="M42.9,11.15h1.34a1.15,1.15,0,0,1,.82.28.69.69,0,0,1,.2.5h0a.76.76,0,0,1-.5.73.78.78,0,0,1,.67.76h0c0,.54-.45.86-1.14.86H42.9Zm1.28,1.4c.42,0,.72-.19.72-.56h0c0-.31-.25-.51-.7-.51h-1v1.08ZM44.3,14c.48,0,.78-.21.78-.56h0c0-.34-.29-.54-.84-.54h-1V14Z"/><path class="cls-13" d="M46.17,11.15h.36v3.14h-.36Z"/><path class="cls-13" d="M47.45,11.15h2.27v.32H47.8v1.08h1.72v.32H47.8V14h1.94v.32H47.45Z"/><path class="cls-13" d="M50.46,11.15h1.35a1.24,1.24,0,0,1,.89.31.87.87,0,0,1,.25.62h0a.93.93,0,0,1-.86.92l1,1.28h-.44l-.91-1.22h-.9v1.22h-.35Zm1.32,1.6c.47,0,.81-.24.81-.64h0c0-.39-.3-.62-.81-.62h-1v1.27Z"/><path class="cls-13" d="M53.71,11.15H54l2,2.52V11.15h.35v3.14h-.29l-2-2.58v2.58h-.34Z"/><path class="cls-13" d="M57.12,12.73h0a1.59,1.59,0,0,1,1.61-1.62,1.57,1.57,0,0,1,1.59,1.61h0a1.6,1.6,0,1,1-3.2,0Zm2.84,0h0a1.25,1.25,0,0,0-1.24-1.3,1.24,1.24,0,0,0-1.23,1.29h0a1.24,1.24,0,1,0,2.47,0Z"/><path class="cls-13" d="M63.59,11.13h.33l1.43,3.16H65l-.37-.83H62.89l-.37.83h-.36Zm.87,2-.71-1.6L63,13.14Z"/><path class="cls-13" d="M65.81,13V11.15h.36V13c0,.68.36,1.06,1,1.06a.9.9,0,0,0,1-1V11.15h.35V13a1.31,1.31,0,1,1-2.62,0Z"/><path class="cls-13" d="M70.1,11.48h-1v-.33h2.47v.33H70.46v2.81H70.1Z"/><path class="cls-13" d="M71.83,12.73h0a1.59,1.59,0,0,1,1.61-1.62A1.57,1.57,0,0,1,75,12.71h0a1.6,1.6,0,1,1-3.2,0Zm2.84,0h0a1.25,1.25,0,0,0-1.24-1.3,1.24,1.24,0,0,0-1.23,1.29h0a1.24,1.24,0,1,0,2.47,0Zm-.93-2.48.35.16-.51.42h-.29Z"/><path class="cls-13" d="M75.79,11.15h.33l2,2.52V11.15h.35v3.14h-.29l-2-2.58v2.58h-.34Z"/><path class="cls-13" d="M79.2,12.73h0a1.59,1.59,0,0,1,1.61-1.62,1.57,1.57,0,0,1,1.59,1.61h0a1.6,1.6,0,1,1-3.2,0Zm2.83,0h0a1.25,1.25,0,0,0-1.23-1.3,1.24,1.24,0,0,0-1.23,1.29h0A1.25,1.25,0,0,0,80.81,14,1.24,1.24,0,0,0,82,12.73Z"/><path class="cls-13" d="M83.16,11.15h.36l1.14,1.71,1.14-1.71h.36v3.14h-.35V11.75l-1.15,1.68h0L83.5,11.75v2.54h-.34Z"/><path class="cls-13" d="M86.92,12.73h0a1.6,1.6,0,1,1,3.2,0h0a1.6,1.6,0,1,1-3.2,0Zm2.83,0h0a1.25,1.25,0,0,0-1.23-1.3,1.24,1.24,0,0,0-1.23,1.29h0A1.25,1.25,0,0,0,88.52,14,1.24,1.24,0,0,0,89.75,12.73Z"/><path class="cls-13" d="M35.56,16.54h1.09a1.57,1.57,0,0,1,1.67,1.56h0a1.57,1.57,0,0,1-1.67,1.57H35.56Zm1.09,2.82A1.22,1.22,0,0,0,38,18.12h0a1.22,1.22,0,0,0-1.3-1.24h-.74v2.49Z"/><path class="cls-13" d="M39.07,16.54h2.27v.32H39.42v1.08h1.72v.32H39.42v1.1h1.94v.32H39.07Z"/><path class="cls-13" d="M41.87,19.23l.22-.26a1.54,1.54,0,0,0,1.08.44c.42,0,.7-.23.7-.53h0c0-.3-.16-.46-.82-.6s-1-.39-1-.91h0a.92.92,0,0,1,1-.85,1.68,1.68,0,0,1,1.11.38l-.21.28a1.37,1.37,0,0,0-.91-.35c-.41,0-.67.23-.67.51h0c0,.3.17.46.86.61s1,.41,1,.89h0c0,.54-.45.89-1.07.89A1.88,1.88,0,0,1,41.87,19.23Z"/><path class="cls-13" d="M44.82,18.12h0a1.58,1.58,0,0,1,1.59-1.62,1.6,1.6,0,0,1,1.22.5l-.24.26a1.35,1.35,0,0,0-1-.44,1.24,1.24,0,0,0-1.22,1.29h0a1.24,1.24,0,0,0,1.22,1.3,1.4,1.4,0,0,0,1-.45l.23.22a1.63,1.63,0,0,1-1.26.56A1.57,1.57,0,0,1,44.82,18.12Z"/><path class="cls-13" d="M48.27,16.54h2.27v.32H48.63v1.08h1.71v.32H48.63v1.1h1.94v.32h-2.3Z"/><path class="cls-13" d="M51.28,16.54h.33l2,2.52V16.54h.35v3.14h-.28l-2-2.57v2.57h-.35Z"/><path class="cls-13" d="M55.66,16.87h-1v-.33h2.47v.33H56v2.81h-.36Z"/><path class="cls-13" d="M57.74,16.54h1.35a1.25,1.25,0,0,1,.9.32.86.86,0,0,1,.24.61h0a.92.92,0,0,1-.85.92l1,1.28h-.43L59,18.46h-.9v1.22h-.36Zm1.32,1.6c.47,0,.81-.24.81-.64h0c0-.39-.3-.62-.8-.62h-1v1.27Z"/><path class="cls-13" d="M62.15,16.52h.34l1.43,3.16h-.38l-.37-.83H61.46l-.37.83h-.37Zm.88,2-.71-1.6-.72,1.6Z"/><path class="cls-13" d="M64.54,16.54h.36v2.82h1.76v.32H64.54Z"/><path class="cls-13" d="M67.35,16.54h.36v3.14h-.36Z"/><path class="cls-13" d="M68.49,19.45l2-2.59h-2v-.32H71v.24l-2,2.58h2v.32H68.49Z"/><path class="cls-13" d="M72.91,16.52h.33l1.43,3.16h-.38l-.37-.83H72.21l-.37.83h-.37Zm.87,2-.71-1.6-.72,1.6Z"/><path class="cls-13" d="M75.29,16.54h1.09a1.57,1.57,0,0,1,1.67,1.56h0a1.57,1.57,0,0,1-1.67,1.57H75.29Zm1.09,2.82a1.22,1.22,0,0,0,1.31-1.24h0a1.23,1.23,0,0,0-1.31-1.24h-.73v2.49Z"/><path class="cls-13" d="M78.67,18.12h0a1.6,1.6,0,1,1,3.2,0h0a1.6,1.6,0,1,1-3.2,0Zm2.83,0h0a1.25,1.25,0,0,0-1.23-1.3A1.24,1.24,0,0,0,79,18.1h0a1.23,1.23,0,1,0,2.46,0Z"/><path class="cls-13" d="M84,16.54h.36l1.15,1.72,1.14-1.72H87v3.14h-.35V17.14l-1.15,1.68h0l-1.14-1.68v2.54H84Z"/><path class="cls-13" d="M87.82,18.37V16.54h.36v1.81a.93.93,0,0,0,1,1.06.91.91,0,0,0,1-1V16.54h.35v1.8a1.31,1.31,0,1,1-2.62,0Z"/><path class="cls-13" d="M91.28,16.54h.34l2,2.52V16.54h.34v3.14h-.28l-2-2.57v2.57h-.35Z"/><path class="cls-13" d="M94.87,16.54h.35v3.14h-.35Z"/><path class="cls-13" d="M96,18.12h0a1.58,1.58,0,0,1,1.59-1.62,1.64,1.64,0,0,1,1.23.5l-.25.26a1.33,1.33,0,0,0-1-.44,1.24,1.24,0,0,0-1.22,1.29h0a1.24,1.24,0,0,0,1.22,1.3,1.38,1.38,0,0,0,1-.45l.24.22a1.63,1.63,0,0,1-1.26.56A1.57,1.57,0,0,1,96,18.12Z"/><path class="cls-13" d="M99.49,16.54h.35v3.14h-.35Z"/><path class="cls-13" d="M100.76,16.54h1.18c.71,0,1.18.38,1.18,1h0c0,.67-.57,1-1.24,1h-.76v1.11h-.36Zm1.14,1.71c.52,0,.86-.28.86-.69h0c0-.45-.34-.68-.85-.68h-.79v1.38Z"/><path class="cls-13" d="M104.61,16.52H105l1.43,3.16H106l-.37-.83h-1.71l-.37.83h-.37Zm.88,2-.71-1.6-.72,1.6Z"/><path class="cls-13" d="M107,16.54h.36v2.82h1.76v.32H107Z"/><path class="cls-13" d="M111.13,16.54h1.09a1.57,1.57,0,0,1,1.67,1.56h0a1.57,1.57,0,0,1-1.67,1.57h-1.09Zm1.09,2.82a1.21,1.21,0,0,0,1.3-1.24h0a1.22,1.22,0,0,0-1.3-1.24h-.74v2.49Z"/><path class="cls-13" d="M114.64,16.54h2.28v.32H115v1.08h1.71v.32H115v1.1h1.94v.32h-2.3Z"/><path class="cls-13" d="M117.65,16.54H118v2.82h1.77v.32h-2.13Z"/><path class="cls-13" d="M121.64,18.12h0a1.58,1.58,0,0,1,1.59-1.62,1.64,1.64,0,0,1,1.23.5l-.24.26a1.35,1.35,0,0,0-1-.44A1.24,1.24,0,0,0,122,18.1h0a1.24,1.24,0,0,0,1.22,1.3,1.38,1.38,0,0,0,1-.45l.24.22a1.63,1.63,0,0,1-1.26.56A1.57,1.57,0,0,1,121.64,18.12Z"/><path class="cls-13" d="M126.26,16.52h.33L128,19.68h-.39l-.36-.83h-1.71l-.38.83h-.36Zm.88,2-.72-1.6-.71,1.6Z"/><path class="cls-13" d="M128.65,16.54H129l2,2.52V16.54h.35v3.14H131l-2-2.57v2.57h-.35Z"/><path class="cls-13" d="M133,16.87H132v-.33h2.47v.33h-1.05v2.81H133Z"/><path class="cls-13" d="M134.76,18.12h0a1.6,1.6,0,1,1,3.2,0h0a1.59,1.59,0,0,1-1.61,1.63A1.58,1.58,0,0,1,134.76,18.12Zm2.83,0h0a1.24,1.24,0,1,0-2.47,0h0a1.24,1.24,0,1,0,2.47,0Zm-.93-2.48.36.16-.52.42h-.29Z"/><path class="cls-13" d="M138.71,16.54h.34l2,2.52V16.54h.34v3.14h-.28l-2-2.57v2.57h-.35Z"/><path class="cls-6" d="M12.13.39l.06,1c.54,0,1.1,0,1.65,0v-1H12.13Z"/><path class="cls-6" d="M10,.48l.09,1c.44,0,.91-.05,1.38-.06l-.07-1C11,.42,10.48.45,10,.48Z"/><path class="cls-6" d="M14.55,1.44l1.65.08.09-1c-.55,0-1.13-.07-1.73-.09Z"/><path class="cls-6" d="M16.77,1.56l1.32.13.1-1L16.86.54Z"/><path class="cls-6" d="M18.74,1.77l1.16.17.2-1c-.4-.07-.79-.13-1.19-.18Z"/><path class="cls-6" d="M8.19.63l.12,1,1.14-.1-.09-1Z"/><path class="cls-6" d="M6,.93l.19,1q.75-.12,1.53-.21L7.59.7C7.05.77,6.52.84,6,.93Z"/></svg>